<svg version="1.1" id="Layer_1" xmlns="http://www.w3.org/2000/svg" xmlns:xlink="http://www.w3.org/1999/xlink" x="0px" y="0px"
	 width="100%" viewBox="0 0 56 92" enable-background="new 0 0 56 92" xml:space="preserve">
<path fill="#FFFFFF" opacity="1.000000" stroke="none" 
	d="
M57.000000,43.000000 
	C57.000000,59.619797 57.000000,76.239594 57.000000,92.929695 
	C38.432907,92.929695 19.865503,92.929695 1.000000,92.929695 
	C1.000000,76.646980 1.000000,60.292149 1.468478,43.468658 
	C7.868013,43.000000 13.799069,43.000000 19.502941,43.000000 
	C20.045380,47.200703 20.249094,50.956730 21.051538,54.580162 
	C23.370787,65.052681 25.851219,75.492195 28.503090,85.884766 
	C28.815844,87.110428 30.907686,88.998009 31.619652,88.778458 
	C33.203415,88.290085 35.272476,86.884293 35.654259,85.454674 
	C36.815609,81.105843 37.460056,76.589272 37.957100,72.099411 
	C38.782417,64.644257 39.287312,57.154224 40.022781,49.688301 
	C40.461658,45.233139 41.829197,41.915562 47.546318,42.905712 
	C50.611061,43.436497 53.843330,43.000000 57.000000,43.000000 
z"/>
<path fill="#000000" opacity="1.000000" stroke="none" 
	d="
M57.000000,42.531364 
	C53.843330,43.000000 50.611061,43.436497 47.546318,42.905712 
	C41.829197,41.915562 40.461658,45.233139 40.022781,49.688301 
	C39.287312,57.154224 38.782417,64.644257 37.957100,72.099411 
	C37.460056,76.589272 36.815609,81.105843 35.654259,85.454674 
	C35.272476,86.884293 33.203415,88.290085 31.619652,88.778458 
	C30.907686,88.998009 28.815844,87.110428 28.503090,85.884766 
	C25.851219,75.492195 23.370787,65.052681 21.051538,54.580162 
	C20.249094,50.956730 20.045380,47.200703 19.502941,43.000000 
	C13.799069,43.000000 7.868013,43.000000 1.468478,43.000000 
	C1.000000,35.312424 1.000000,27.624847 1.468307,19.468636 
	C20.291075,19.000000 38.645538,19.000000 57.000000,19.000000 
	C57.000000,26.687576 57.000000,34.375153 57.000000,42.531364 
z"/>
<path fill="#FFFFFF" opacity="1.000000" stroke="none" 
	d="
M57.000000,18.530293 
	C38.645538,19.000000 20.291075,19.000000 1.468307,19.000000 
	C1.000000,13.028814 1.000000,7.057629 1.000000,1.043222 
	C19.548128,1.043222 38.096375,1.043222 57.000000,1.043222 
	C57.000000,6.681926 57.000000,12.371255 57.000000,18.530293 
z"/>
</svg>