<svg version="1.1" id="Layer_1" xmlns="http://www.w3.org/2000/svg" xmlns:xlink="http://www.w3.org/1999/xlink" x="0px" y="0px"
	 width="100%" viewBox="0 0 121 135" enable-background="new 0 0 121 135" xml:space="preserve">
<path fill="#FFFFFF" opacity="1.000000" stroke="none" 
	d="
M122.000000,72.000000 
	C122.000000,93.314201 122.000000,114.628395 122.000000,135.971298 
	C81.721992,135.971298 41.443962,135.971298 1.082966,135.971298 
	C1.082966,91.095810 1.082966,46.191414 1.082966,1.143509 
	C41.332993,1.143509 81.666420,1.143509 122.000000,1.143509 
	C122.000000,16.423565 122.000000,31.743124 121.531342,47.531342 
	C101.906555,47.999989 82.750191,47.950089 63.594486,48.040493 
	C59.583492,48.059425 57.828991,46.973068 57.856388,42.429272 
	C57.901432,34.959358 59.160767,27.388256 56.069725,20.025799 
	C53.153202,13.079022 45.979641,9.772822 39.343472,13.290757 
	C27.752392,19.435360 20.042665,29.694307 11.791291,39.434887 
	C9.260841,42.422031 10.678277,43.974239 12.466541,45.929615 
	C14.811887,48.494137 16.032803,46.003201 17.737494,44.831917 
	C22.370766,41.648438 26.947535,38.283600 31.925093,35.727497 
	C37.169651,33.034283 41.688263,35.846684 41.982952,41.455051 
	C42.700569,55.112316 42.518234,68.878685 44.254555,82.401291 
	C45.676018,93.471802 49.270981,104.272842 52.119980,115.136284 
	C52.421658,116.286606 54.471020,118.012657 55.213371,117.793190 
	C56.657551,117.366219 58.601162,115.907150 58.845444,114.597267 
	C60.151043,107.596413 61.066292,100.518723 61.978371,93.449768 
	C62.748966,87.477341 63.180889,81.456970 64.115234,75.513237 
	C64.318306,74.221428 66.209206,72.050323 67.005959,72.183228 
	C71.975487,73.012230 77.590759,69.443726 81.911430,74.109192 
	C82.684120,74.943542 82.809898,76.501411 82.965874,77.758530 
	C83.387833,81.159317 83.291862,84.666054 84.071327,87.972839 
	C86.241791,97.180878 88.682076,106.328316 91.223389,115.441795 
	C91.513405,116.481827 93.136452,117.844643 94.113373,117.822464 
	C95.329109,117.794876 96.956764,116.746948 97.606384,115.661003 
	C98.473511,114.211456 98.782715,112.323807 98.964691,110.585915 
	C100.036125,100.353607 100.949753,90.104790 102.018417,79.872177 
	C102.828033,72.120049 103.040512,72.000389 111.006065,72.000023 
	C114.670708,71.999855 118.335358,72.000000 122.000000,72.000000 
z"/>
<path fill="#000000" opacity="1.000000" stroke="none" 
	d="
M122.000000,71.531364 
	C118.335358,72.000000 114.670708,71.999855 111.006065,72.000023 
	C103.040512,72.000389 102.828033,72.120049 102.018417,79.872177 
	C100.949753,90.104790 100.036125,100.353607 98.964691,110.585915 
	C98.782715,112.323807 98.473511,114.211456 97.606384,115.661003 
	C96.956764,116.746948 95.329109,117.794876 94.113373,117.822464 
	C93.136452,117.844643 91.513405,116.481827 91.223389,115.441795 
	C88.682076,106.328316 86.241791,97.180878 84.071327,87.972839 
	C83.291862,84.666054 83.387833,81.159317 82.965874,77.758530 
	C82.809898,76.501411 82.684120,74.943542 81.911430,74.109192 
	C77.590759,69.443726 71.975487,73.012230 67.005959,72.183228 
	C66.209206,72.050323 64.318306,74.221428 64.115234,75.513237 
	C63.180889,81.456970 62.748966,87.477341 61.978371,93.449768 
	C61.066292,100.518723 60.151043,107.596413 58.845444,114.597267 
	C58.601162,115.907150 56.657551,117.366219 55.213371,117.793190 
	C54.471020,118.012657 52.421658,116.286606 52.119980,115.136284 
	C49.270981,104.272842 45.676018,93.471802 44.254555,82.401291 
	C42.518234,68.878685 42.700569,55.112316 41.982952,41.455051 
	C41.688263,35.846684 37.169651,33.034283 31.925093,35.727497 
	C26.947535,38.283600 22.370766,41.648438 17.737494,44.831917 
	C16.032803,46.003201 14.811887,48.494137 12.466541,45.929615 
	C10.678277,43.974239 9.260841,42.422031 11.791291,39.434887 
	C20.042665,29.694307 27.752392,19.435360 39.343472,13.290757 
	C45.979641,9.772822 53.153202,13.079022 56.069725,20.025799 
	C59.160767,27.388256 57.901432,34.959358 57.856388,42.429272 
	C57.828991,46.973068 59.583492,48.059425 63.594486,48.040493 
	C82.750191,47.950089 101.906555,47.999989 121.531342,48.000000 
	C122.000000,55.687576 122.000000,63.375153 122.000000,71.531364 
z"/>
</svg>